<?xml version="1.0" encoding="utf-8"?>
<!-- Generator: Adobe Illustrator 21.1.0, SVG Export Plug-In . SVG Version: 6.00 Build 0)  -->
<svg version="1.1" id="Layer_1" xmlns="http://www.w3.org/2000/svg" xmlns:xlink="http://www.w3.org/1999/xlink" x="0px" y="0px"
	 viewBox="0 0 400 400" style="enable-background:new 0 0 400 400;" xml:space="preserve">
<style type="text/css">
	.st0{fill:#FFFFFF;}
</style>
<g id="graphicIcon">
	<g>
		<g>
			<g>
				<path class="st0" d="M147.2,107c5.5,0,10,4.5,10,10v30.8c0,5.5-4.5,10-10,10H115c-5.5,0-10-4.5-10-10V117c0-5.5,4.5-10,10-10
					H147.2 M147.2,102H115c-8.3,0-15,6.8-15,15v30.8c0,8.3,6.8,15,15,15h32.2c8.3,0,15-6.8,15-15V117
					C162.2,108.8,155.4,102,147.2,102L147.2,102z"/>
			</g>
			<g>
				<path class="st0" d="M215.9,107c5.5,0,10,4.5,10,10v30.8c0,5.5-4.5,10-10,10h-32.2c-5.5,0-10-4.5-10-10V117c0-5.5,4.5-10,10-10
					H215.9 M215.9,102h-32.2c-8.3,0-15,6.8-15,15v30.8c0,8.3,6.8,15,15,15h32.2c8.3,0,15-6.8,15-15V117
					C230.9,108.8,224.1,102,215.9,102L215.9,102z"/>
			</g>
			<g>
				<path class="st0" d="M284.6,107c5.5,0,10,4.5,10,10v30.8c0,5.5-4.5,10-10,10h-32.2c-5.5,0-10-4.5-10-10V117c0-5.5,4.5-10,10-10
					H284.6 M284.6,102h-32.2c-8.3,0-15,6.8-15,15v30.8c0,8.3,6.8,15,15,15h32.2c8.3,0,15-6.8,15-15V117
					C299.6,108.8,292.8,102,284.6,102L284.6,102z"/>
			</g>
		</g>
		<g>
			<g>
				<path class="st0" d="M147.2,174.6c5.5,0,10,4.5,10,10v30.8c0,5.5-4.5,10-10,10H115c-5.5,0-10-4.5-10-10v-30.8
					c0-5.5,4.5-10,10-10H147.2 M147.2,169.6H115c-8.3,0-15,6.8-15,15v30.8c0,8.3,6.8,15,15,15h32.2c8.3,0,15-6.8,15-15v-30.8
					C162.2,176.3,155.4,169.6,147.2,169.6L147.2,169.6z"/>
			</g>
			<g>
				<path class="st0" d="M215.9,174.6c5.5,0,10,4.5,10,10v30.8c0,5.5-4.5,10-10,10h-32.2c-5.5,0-10-4.5-10-10v-30.8
					c0-5.5,4.5-10,10-10H215.9 M215.9,169.6h-32.2c-8.3,0-15,6.8-15,15v30.8c0,8.3,6.8,15,15,15h32.2c8.3,0,15-6.8,15-15v-30.8
					C230.9,176.3,224.1,169.6,215.9,169.6L215.9,169.6z"/>
			</g>
			<g>
				<path class="st0" d="M284.6,174.6c5.5,0,10,4.5,10,10v30.8c0,5.5-4.5,10-10,10h-32.2c-5.5,0-10-4.5-10-10v-30.8
					c0-5.5,4.5-10,10-10H284.6 M284.6,169.6h-32.2c-8.3,0-15,6.8-15,15v30.8c0,8.3,6.8,15,15,15h32.2c8.3,0,15-6.8,15-15v-30.8
					C299.6,176.3,292.8,169.6,284.6,169.6L284.6,169.6z"/>
			</g>
		</g>
		<g>
			<g>
				<path class="st0" d="M147.2,242.2c5.5,0,10,4.5,10,10V283c0,5.5-4.5,10-10,10H115c-5.5,0-10-4.5-10-10v-30.8c0-5.5,4.5-10,10-10
					H147.2 M147.2,237.2H115c-8.3,0-15,6.8-15,15V283c0,8.3,6.8,15,15,15h32.2c8.3,0,15-6.8,15-15v-30.8
					C162.2,243.9,155.4,237.2,147.2,237.2L147.2,237.2z"/>
			</g>
			<g>
				<path class="st0" d="M215.9,242.2c5.5,0,10,4.5,10,10V283c0,5.5-4.5,10-10,10h-32.2c-5.5,0-10-4.5-10-10v-30.8
					c0-5.5,4.5-10,10-10H215.9 M215.9,237.2h-32.2c-8.3,0-15,6.8-15,15V283c0,8.3,6.8,15,15,15h32.2c8.3,0,15-6.8,15-15v-30.8
					C230.9,243.9,224.1,237.2,215.9,237.2L215.9,237.2z"/>
			</g>
			<g>
				<path class="st0" d="M284.6,242.2c5.5,0,10,4.5,10,10V283c0,5.5-4.5,10-10,10h-32.2c-5.5,0-10-4.5-10-10v-30.8
					c0-5.5,4.5-10,10-10H284.6 M284.6,237.2h-32.2c-8.3,0-15,6.8-15,15V283c0,8.3,6.8,15,15,15h32.2c8.3,0,15-6.8,15-15v-30.8
					C299.6,243.9,292.8,237.2,284.6,237.2L284.6,237.2z"/>
			</g>
		</g>
	</g>
</g>
</svg>
