<?xml version="1.0" encoding="utf-8"?>
<!-- Generator: Adobe Illustrator 21.1.0, SVG Export Plug-In . SVG Version: 6.00 Build 0)  -->
<svg version="1.1" id="Layer_1" xmlns="http://www.w3.org/2000/svg" xmlns:xlink="http://www.w3.org/1999/xlink" x="0px" y="0px"
	 viewBox="0 0 400 400" style="enable-background:new 0 0 400 400;" xml:space="preserve">
<style type="text/css">
	.st0{fill:#FFFFFF;}
</style>
<g id="Layer_2">
	<g>
		<g>
			<path class="st0" d="M90.8,129.6c5.5,0,10,4.5,10,10v5.3c0,5.5-4.5,10-10,10h-6.4c-5.5,0-10-4.5-10-10v-5.3c0-5.5,4.5-10,10-10
				H90.8 M90.8,124.6h-6.4c-8.3,0-15,6.8-15,15v5.3c0,8.3,6.8,15,15,15h6.4c8.3,0,15-6.8,15-15v-5.3
				C105.8,131.3,99.1,124.6,90.8,124.6L90.8,124.6z"/>
		</g>
		<g>
			<path class="st0" d="M315,129.6c5.5,0,10,4.5,10,10v5.3c0,5.5-4.5,10-10,10H132.8c-5.5,0-10-4.5-10-10v-5.3c0-5.5,4.5-10,10-10
				H315 M315,124.6H132.8c-8.3,0-15,6.8-15,15v5.3c0,8.3,6.8,15,15,15H315c8.3,0,15-6.8,15-15v-5.3C330,131.3,323.3,124.6,315,124.6
				L315,124.6z"/>
		</g>
	</g>
	<g>
		<g>
			<path class="st0" d="M90.8,189.7c5.5,0,10,4.5,10,10v5.3c0,5.5-4.5,10-10,10h-6.4c-5.5,0-10-4.5-10-10v-5.3c0-5.5,4.5-10,10-10
				H90.8 M90.8,184.7h-6.4c-8.3,0-15,6.8-15,15v5.3c0,8.3,6.8,15,15,15h6.4c8.3,0,15-6.8,15-15v-5.3
				C105.8,191.4,99.1,184.7,90.8,184.7L90.8,184.7z"/>
		</g>
		<g>
			<path class="st0" d="M315,189.7c5.5,0,10,4.5,10,10v5.3c0,5.5-4.5,10-10,10H132.8c-5.5,0-10-4.5-10-10v-5.3c0-5.5,4.5-10,10-10
				H315 M315,184.7H132.8c-8.2,0-15,6.8-15,15v5.3c0,8.3,6.8,15,15,15H315c8.3,0,15-6.8,15-15v-5.3C330,191.4,323.3,184.7,315,184.7
				L315,184.7z"/>
		</g>
	</g>
	<g>
		<g>
			<path class="st0" d="M90.8,249.7c5.5,0,10,4.5,10,10v5.3c0,5.5-4.5,10-10,10h-6.4c-5.5,0-10-4.5-10-10v-5.3c0-5.5,4.5-10,10-10
				L90.8,249.7 M90.8,244.7h-6.4c-8.3,0-15,6.8-15,15v5.3c0,8.3,6.8,15,15,15h6.4c8.3,0,15-6.8,15-15v-5.3
				C105.8,251.5,99.1,244.7,90.8,244.7L90.8,244.7z"/>
		</g>
		<g>
			<path class="st0" d="M315,249.7c5.5,0,10,4.5,10,10v5.3c0,5.5-4.5,10-10,10H132.8c-5.5,0-10-4.5-10-10v-5.3c0-5.5,4.5-10,10-10
				L315,249.7 M315,244.7H132.8c-8.3,0-15,6.8-15,15v5.3c0,8.3,6.8,15,15,15H315c8.3,0,15-6.8,15-15v-5.3
				C330,251.5,323.3,244.7,315,244.7L315,244.7z"/>
		</g>
	</g>
</g>
</svg>
